<svg width="37" height="37" viewBox="0 0 37 37" fill="none" xmlns="http://www.w3.org/2000/svg">
<path d="M19 21.2453L25.2848 27.5302C25.5826 27.8285 25.9866 27.9962 26.4081 27.9966C26.8295 27.997 27.2339 27.8299 27.5322 27.5322C27.8304 27.2344 27.9982 26.8304 27.9986 26.4089C27.999 25.9875 27.8319 25.5831 27.5342 25.2848L21.2493 19L27.5342 12.7152C27.8324 12.4169 28 12.0123 28 11.5905C28 11.1687 27.8324 10.7641 27.5342 10.4658C27.2359 10.1676 26.8313 10 26.4095 10C25.9877 10 25.5831 10.1676 25.2848 10.4658L19 16.7507L12.7152 10.4658C12.4169 10.1676 12.0123 10 11.5905 10C11.1687 10 10.7641 10.1676 10.4658 10.4658C10.1676 10.7641 10 11.1687 10 11.5905C10 12.0123 10.1676 12.4169 10.4658 12.7152L16.7507 19L10.4658 25.2848C10.1676 25.5831 10 25.9877 10 26.4095C10 26.8313 10.1676 27.2359 10.4658 27.5342C10.7641 27.8324 11.1687 28 11.5905 28C12.0123 28 12.4169 27.8324 12.7152 27.5342L19 21.2453Z" fill="white"/>
</svg>
