<svg width="21" height="21" viewBox="0 0 21 21" fill="none" xmlns="http://www.w3.org/2000/svg">
<path fill-rule="evenodd" clip-rule="evenodd" d="M8.96875 4.375C8.96875 3.52933 9.65429 2.84375 10.5 2.84375C11.3457 2.84375 12.0312 3.52933 12.0312 4.375C12.0312 5.22067 11.3457 5.90625 10.5 5.90625C9.65429 5.90625 8.96875 5.22067 8.96875 4.375ZM10.5 4.15625C10.3792 4.15625 10.2812 4.25418 10.2812 4.375C10.2812 4.49582 10.3792 4.59375 10.5 4.59375C10.6208 4.59375 10.7188 4.49582 10.7188 4.375C10.7188 4.25418 10.6208 4.15625 10.5 4.15625Z" fill="#485867"/>
<path fill-rule="evenodd" clip-rule="evenodd" d="M8.96875 10.5C8.96875 9.6543 9.6543 8.96875 10.5 8.96875C11.3457 8.96875 12.0312 9.6543 12.0312 10.5C12.0312 11.3457 11.3457 12.0312 10.5 12.0312C9.6543 12.0312 8.96875 11.3457 8.96875 10.5ZM10.5 10.2812C10.3792 10.2812 10.2812 10.3792 10.2812 10.5C10.2812 10.6208 10.3792 10.7188 10.5 10.7188C10.6208 10.7188 10.7188 10.6208 10.7188 10.5C10.7188 10.3792 10.6208 10.2812 10.5 10.2812Z" fill="#485867"/>
<path fill-rule="evenodd" clip-rule="evenodd" d="M8.96875 16.625C8.96875 15.7793 9.6543 15.0938 10.5 15.0938C11.3457 15.0938 12.0312 15.7793 12.0312 16.625C12.0312 17.4707 11.3457 18.1562 10.5 18.1562C9.6543 18.1562 8.96875 17.4707 8.96875 16.625ZM10.5 16.4062C10.3792 16.4062 10.2812 16.5042 10.2812 16.625C10.2812 16.7458 10.3792 16.8438 10.5 16.8438C10.6208 16.8438 10.7188 16.7458 10.7188 16.625C10.7188 16.5042 10.6208 16.4062 10.5 16.4062Z" fill="#485867"/>
</svg>
