<svg width="17" height="17" viewBox="0 0 17 17" fill="none" xmlns="http://www.w3.org/2000/svg">
<path fill-rule="evenodd" clip-rule="evenodd" d="M12.2658 11.0274C13.305 9.68772 13.7947 8.00245 13.6354 6.31448C13.4761 4.6265 12.6797 3.06261 11.4083 1.94097C10.1368 0.819328 8.48583 0.22419 6.79117 0.27663C5.0965 0.329071 3.48546 1.02515 2.28581 2.22326C1.0851 3.4222 0.386747 5.03386 0.333054 6.72981C0.27936 8.42577 0.87437 10.0784 1.99683 11.3509C3.11929 12.6234 4.68472 13.42 6.37412 13.5783C8.06351 13.7367 9.74973 13.2449 11.0891 12.2033L11.125 12.2408L14.66 15.7766C14.7374 15.854 14.8293 15.9154 14.9305 15.9573C15.0316 15.9992 15.1401 16.0208 15.2496 16.0208C15.3591 16.0208 15.4675 15.9992 15.5686 15.9573C15.6698 15.9154 15.7617 15.854 15.8391 15.7766C15.9166 15.6992 15.978 15.6072 16.0199 15.5061C16.0618 15.4049 16.0834 15.2965 16.0834 15.187C16.0834 15.0775 16.0618 14.9691 16.0199 14.8679C15.978 14.7668 15.9166 14.6748 15.8391 14.5974L12.3033 11.0624C12.2911 11.0504 12.2786 11.0387 12.2658 11.0274ZM10.5358 3.40242C11.0063 3.86532 11.3805 4.4168 11.6368 5.02504C11.8931 5.63328 12.0265 6.28624 12.0291 6.94627C12.0318 7.60631 11.9038 8.26034 11.6525 8.87064C11.4011 9.48095 11.0314 10.0355 10.5647 10.5022C10.098 10.9689 9.5435 11.3386 8.93319 11.5899C8.32288 11.8413 7.66885 11.9693 7.00882 11.9666C6.34879 11.9639 5.69582 11.8306 5.08758 11.5743C4.47935 11.318 3.92787 10.9438 3.46497 10.4733C2.5399 9.533 2.02385 8.26529 2.02922 6.94627C2.03459 5.62726 2.56095 4.36379 3.49365 3.4311C4.42634 2.4984 5.6898 1.97205 7.00882 1.96667C8.32784 1.9613 9.59555 2.47736 10.5358 3.40242Z" fill="#DDDDDD"/>
</svg>
